<?xml version="1.0" standalone="no"?><!DOCTYPE svg PUBLIC "-//W3C//DTD SVG 1.1//EN" "http://www.w3.org/Graphics/SVG/1.1/DTD/svg11.dtd"><svg t="1646742801808" class="icon" viewBox="0 0 1024 1024" version="1.1" xmlns="http://www.w3.org/2000/svg" p-id="2079" xmlns:xlink="http://www.w3.org/1999/xlink" width="200" height="200"><defs><style type="text/css"></style></defs><path d="M304.341333 835.114667c-6.314667-25.429333-37.888-51.2-39.808-53.248v-0.298667l-0.341333 0.298667c-1.92 1.578667-33.493333 27.818667-39.808 53.248-6.485333 26.112 10.922667 57.002667 39.808 58.325333H264.533333c28.885333-1.28 46.293333-32.213333 39.808-58.325333zM842.666667 141.994667c-41.130667-23.722667-93.738667-13.653333-127.274667 19.925333L644.266667 233.045333l-42.666667-42.666666a44.586667 44.586667 0 0 0-62.848 0l-10.837333 10.837333a44.586667 44.586667 0 0 0 0 62.848l42.666666 42.666667L309.333333 567.466667l-1.109333 2.005333-41.130667 168.746667a11.776 11.776 0 0 0 13.866667 14.336l173.653333-36.48 2.133334-1.152 261.205333-261.248 42.666667 42.666666a44.586667 44.586667 0 0 0 62.848 0l10.837333-10.837333a44.586667 44.586667 0 0 0 0-62.848l-42.666667-42.666667L865.28 307.2a104.533333 104.533333 0 0 0-22.656-164.778667zM553.685333 554.666667H406.314667l194.389333-194.432 73.728 73.728-120.746667 120.746666z" p-id="2080" fill="#ffffff"></path></svg>