<?xml version="1.0" standalone="no"?><!DOCTYPE svg PUBLIC "-//W3C//DTD SVG 1.1//EN" "http://www.w3.org/Graphics/SVG/1.1/DTD/svg11.dtd"><svg t="1645972262450" class="icon" viewBox="0 0 1024 1024" version="1.1" xmlns="http://www.w3.org/2000/svg" p-id="2051" data-darkreader-inline-fill="" xmlns:xlink="http://www.w3.org/1999/xlink" width="200" height="200"><defs><style type="text/css"></style></defs><path d="M407.466667 552.533333l324.266666-324.266666c2.133333-2.133333 6.4-4.266667 10.666667-4.266667s6.4 2.133333 10.666667 4.266667l100.266666 100.266666c2.133333 2.133333 4.266667 6.4 4.266667 10.666667s-2.133333 6.4-4.266667 10.666667l-445.866666 445.866666c-2.133333 2.133333-6.4 4.266667-10.666667 4.266667s-6.4-2.133333-10.666667-4.266667l-217.6-217.6c-2.133333-2.133333-4.266667-6.4-4.266666-10.666666s2.133333-6.4 4.266666-10.666667l100.266667-100.266667c2.133333-2.133333 6.4-4.266667 10.666667-4.266666s6.4 2.133333 10.666666 4.266666l98.133334 98.133334c2.133333 2.133333 6.4 4.266667 10.666666 4.266666s6.4-2.133333 8.533334-6.4z" p-id="2052" fill="#1dde5d" style="--darkreader-inline-fill: #17b24a;" data-darkreader-inline-fill=""></path></svg>